<?xml version="1.0" encoding="UTF-8" standalone="no"?>
<!-- Created with Inkscape (http://www.inkscape.org/) -->

<svg
   xmlns:dc="http://purl.org/dc/elements/1.1/"
   xmlns:cc="http://creativecommons.org/ns#"
   xmlns:rdf="http://www.w3.org/1999/02/22-rdf-syntax-ns#"
   xmlns:svg="http://www.w3.org/2000/svg"
   xmlns="http://www.w3.org/2000/svg"
   xmlns:sodipodi="http://sodipodi.sourceforge.net/DTD/sodipodi-0.dtd"
   xmlns:inkscape="http://www.inkscape.org/namespaces/inkscape"
   width="100mm"
   height="20mm"
   viewBox="0 0 100 20"
   version="1.1"
   id="svg837"
   sodipodi:docname="logo.svg"
   inkscape:version="0.92.1 r15371">
  <defs
     id="defs831" />
  <sodipodi:namedview
     id="base"
     pagecolor="#ffffff"
     bordercolor="#666666"
     borderopacity="1.0"
     inkscape:pageopacity="0.0"
     inkscape:pageshadow="2"
     inkscape:zoom="2.3786042"
     inkscape:cx="188.97638"
     inkscape:cy="37.795296"
     inkscape:document-units="mm"
     inkscape:current-layer="layer1"
     showgrid="false"
     showborder="true"
     inkscape:window-width="1024"
     inkscape:window-height="715"
     inkscape:window-x="-8"
     inkscape:window-y="-8"
     inkscape:window-maximized="1" />
  <metadata
     id="metadata834">
    <rdf:RDF>
      <cc:Work
         rdf:about="">
        <dc:format>image/svg+xml</dc:format>
        <dc:type
           rdf:resource="http://purl.org/dc/dcmitype/StillImage" />
        <dc:title></dc:title>
      </cc:Work>
    </rdf:RDF>
  </metadata>
  <g
     inkscape:label="Layer 1"
     inkscape:groupmode="layer"
     id="layer1"
     transform="translate(0,-277)">
    <text
       xml:space="preserve"
       style="font-style:normal;font-variant:normal;font-weight:normal;font-stretch:normal;font-size:6.13040543px;line-height:1.25;font-family:'8514oem';-inkscape-font-specification:'8514oem, Normal';font-variant-ligatures:normal;font-variant-caps:normal;font-variant-numeric:normal;font-feature-settings:normal;text-align:center;letter-spacing:0px;word-spacing:0px;writing-mode:lr-tb;text-anchor:middle;fill:#4d4d4d;fill-opacity:1;stroke:none;stroke-width:0.32841456"
       x="37.412788"
       y="272.11359"
       id="text849"
       transform="scale(0.96597711,1.0352212)"><tspan
         sodipodi:role="line"
         id="tspan847"
         x="37.412788"
         y="272.11359"
         style="font-style:normal;font-variant:normal;font-weight:normal;font-stretch:normal;font-size:6.13040543px;font-family:'8514oem';-inkscape-font-specification:'8514oem, Normal';font-variant-ligatures:normal;font-variant-caps:normal;font-variant-numeric:normal;font-feature-settings:normal;text-align:center;writing-mode:lr-tb;text-anchor:middle;fill:#4d4d4d;stroke-width:0.32841456">Creative</tspan></text>
    <text
       xml:space="preserve"
       style="font-style:normal;font-variant:normal;font-weight:normal;font-stretch:normal;font-size:5.97766018px;line-height:1.25;font-family:sans-serif;-inkscape-font-specification:'sans-serif, Normal';font-variant-ligatures:normal;font-variant-caps:normal;font-variant-numeric:normal;font-feature-settings:normal;text-align:center;letter-spacing:0px;word-spacing:0px;writing-mode:lr-tb;text-anchor:middle;fill:#4d4d4d;fill-opacity:1;stroke:none;stroke-width:0.32023177"
       x="71.545303"
       y="297.94382"
       id="text853"
       transform="scale(1.058958,0.94432452)"><tspan
         sodipodi:role="line"
         id="tspan851"
         x="71.545303"
         y="297.94382"
         style="font-style:normal;font-variant:normal;font-weight:normal;font-stretch:normal;font-size:5.97766018px;font-family:sans-serif;-inkscape-font-specification:'sans-serif, Normal';font-variant-ligatures:normal;font-variant-caps:normal;font-variant-numeric:normal;font-feature-settings:normal;text-align:center;writing-mode:lr-tb;text-anchor:middle;fill:#4d4d4d;stroke-width:0.32023177">Designer</tspan></text>
    <path
       style="opacity:1;fill:#ff0066;fill-opacity:0.78391957;fill-rule:nonzero;stroke:none;stroke-width:0.26453292;stroke-miterlimit:4;stroke-dasharray:none;stroke-opacity:0"
       d="M 1.326417,287.09568 0,278.30138 l 3.546251,0.46115 c 2.566603,-1e-5 3.184397,0.13804 3.918891,0.87574 1.527973,1.53463 1.265551,5.45866 -0.470391,7.03382 -0.30022,0.27241 -0.545854,0.53401 -0.545854,0.58133 0,0.0473 0.223213,0.34794 0.49603,0.66806 0.272817,0.32012 0.663378,1.04785 0.867913,1.61721 0.321463,0.89483 1.52196,5.44999 1.52196,5.77491 0,0.0634 0.859334,1.96153 0.356466,1.65239 L 7.190833,295.42884 7.02453,294.59552 c -0.333322,-1.67023 -1.018947,-4.28976 -1.251743,-4.78249 -0.320203,-0.67772 -0.962037,-1.0495 -1.812983,-1.05018 l -0.685401,-5.3e-4 v 3.33327 3.33326 H 2.30041 l -0.973993,10e-6 z m 3.970316,-0.83332 c 0.950632,-0.48395 1.224594,-1.06016 1.223063,-2.57241 -0.0014,-1.40763 -0.24502,-2.03203 -0.931948,-2.3888 -0.448232,-0.2328 -1.967287,-0.29808 -2.28115,-0.098 -0.144313,0.0919 -0.16285,0.68714 -0.08569,2.75135 l 0.09846,2.63397 h 0.668371 c 0.407143,0 0.918717,-0.12745 1.3089,-0.32608 z"
       id="path855"
       inkscape:connector-curvature="0"
       sodipodi:nodetypes="cccccsccssccccccccccccscccscc" />
    <path
       style="opacity:1;fill:#ff0066;fill-opacity:0.78391957;fill-rule:nonzero;stroke:none;stroke-width:0.26453292;stroke-miterlimit:4;stroke-dasharray:none;stroke-opacity:0"
       d="m 55.220667,295.74295 c -0.319261,-0.0961 -2.368303,0.37696 -0.405847,-0.89969 -1.721089,-0.55045 -0.0079,-0.99096 0.03755,-1.23512 0.0826,-0.44356 -1.051789,-1.13559 0.917782,-0.38325 0.742977,0.0539 0.886056,0.0176 1.296778,-0.32948 0.908505,-0.76779 0.967829,-1.26474 0.964845,-8.08229 l -0.0026,-6.0506 h 0.99963 0.999632 l -0.100909,5.95656 c -0.06718,3.96556 -0.167186,6.33787 -0.299196,7.09734 -0.201683,1.16031 -0.75899,2.58642 -1.20379,3.08044 -0.616269,0.68446 -2.280256,1.12389 -3.20383,0.84609 z"
       id="path857"
       inkscape:connector-curvature="0"
       sodipodi:nodetypes="cccccccccccccc" />
    <path
       style="opacity:1;fill:#d400aa;fill-opacity:0.78391957;fill-rule:nonzero;stroke:none;stroke-width:0.26453292;stroke-miterlimit:4;stroke-dasharray:none;stroke-opacity:0"
       d="m 10.514112,294.82747 c -0.745948,-0.68904 -1.152545,-2.07905 -1.023185,-3.49788 0.117742,-1.2914 0.835802,-3.23333 1.699784,-4.59692 1.765664,-2.78669 3.892969,-3.98823 5.751829,-3.24874 0.669083,0.2662 0.853879,0.40909 1.199565,0.92572 1.2821,1.91755 0.548119,5.62882 -1.695883,8.57496 -1.861691,2.4442 -4.420528,3.23912 -5.93211,1.84286 z m 2.557908,-1.4162 c 0.997603,-0.1634 2.605278,-2.26226 3.251364,-4.24472 0.725118,-2.22496 0.424508,-3.74254 -0.754641,-3.8097 -1.089274,-0.062 -2.253071,1.18544 -3.250183,3.48388 -1.061292,2.44637 -1.066909,3.9234 -0.01685,4.43199 0.22465,0.10881 0.571291,0.17115 0.770313,0.13855 z"
       id="path859"
       inkscape:connector-curvature="0" />
    <path
       style="opacity:1;fill:#d400aa;fill-opacity:0.78391957;fill-rule:nonzero;stroke:none;stroke-width:0.26453292;stroke-miterlimit:4;stroke-dasharray:none;stroke-opacity:0"
       d="m 19.554389,286.47975 c -0.02665,-4.922 -0.03547,-8.97261 -0.01961,-9.00136 0.01586,-0.0287 0.454523,-0.0866 0.974823,-0.12853 l 0.946001,-0.0763 v 5.32166 c 0,4.19227 0.03827,5.30911 0.180368,5.26252 0.220178,-0.0722 1.001155,-1.48362 1.764872,-3.18958 l 0.567695,-1.26809 h 1.052254 c 0.578743,0 1.051344,0.0489 1.050227,0.1087 -0.0057,0.30699 -1.589822,2.96332 -2.653302,4.44929 -0.08679,0.12127 0.04645,0.46928 0.399796,1.04423 0.592944,0.96483 1.87894,3.78817 2.451114,5.38129 l 0.375399,1.04523 H 25.504362 24.3647 l -0.249993,-0.76086 c -0.292385,-0.88987 -1.621841,-3.91734 -2.023702,-4.60843 -0.580307,-0.99796 -0.635402,-0.79105 -0.635402,2.38626 v 2.98303 H 20.52922 19.602835 Z"
       id="path861"
       inkscape:connector-curvature="0" />
    <path
       style="opacity:1;fill:#d400aa;fill-opacity:0.78391957;fill-rule:nonzero;stroke:none;stroke-width:0.26453295;stroke-miterlimit:4;stroke-dasharray:none;stroke-opacity:0"
       d="m 29.731638,285.81711 c 5.33e-4,-0.71737 0.02521,-0.99257 0.05502,-0.61155 0.02983,0.38102 0.02946,0.96796 -7.99e-4,1.30432 -0.03027,0.33636 -0.05466,0.0246 -0.05423,-0.69277 z"
       id="path863"
       inkscape:connector-curvature="0" />
    <path
       style="opacity:1;fill:#2ca089;fill-opacity:0.78391957;fill-rule:nonzero;stroke:none;stroke-width:0.26453292;stroke-miterlimit:4;stroke-dasharray:none;stroke-opacity:0"
       d="m 28.491297,291.73722 c -0.809214,-2.43876 -1.709626,-4.98371 -2.000925,-5.65545 l -0.529633,-1.22135 0.360155,-0.20616 c 0.198091,-0.11337 0.577927,-0.32339 0.844073,-0.46669 l 0.4839,-0.26058 0.210375,0.634 c 0.115708,0.34871 0.273851,0.61276 0.351447,0.58679 0.07758,-0.026 0.254802,-0.31825 0.3938,-0.64951 0.324917,-0.77434 0.88158,-1.30498 1.63271,-1.5564 0.915302,-0.30636 1.610713,-0.11663 2.397068,0.65402 l 0.676173,0.66267 1.656439,4.8416 1.656437,4.84159 -0.983811,0.32929 c -0.966094,0.32337 -0.984257,0.32307 -1.01045,-0.0231 -0.04825,-0.63823 -2.392289,-7.59437 -2.708214,-8.03687 -0.80953,-1.13386 -2.014498,-0.9839 -2.753943,0.34274 -0.213737,0.38345 -0.20933,0.40048 1.214603,4.69183 l 1.429119,4.30698 -0.924024,0.30932 -0.92402,0.30931 z"
       id="path865"
       inkscape:connector-curvature="0" />
    <path
       style="opacity:1;fill:#d400aa;fill-opacity:0.78391957;fill-rule:nonzero;stroke:none;stroke-width:0.26453292;stroke-miterlimit:4;stroke-dasharray:none;stroke-opacity:0"
       d="m 38.081025,295.62259 c -0.260453,-0.12893 -0.600103,-0.41292 -0.754775,-0.63108 -0.608138,-0.85778 -0.723817,-1.84499 -0.800687,-6.83305 l -0.07296,-4.73419 0.978836,-0.0483 0.978838,-0.0483 5.32e-4,4.13035 c 5.32e-4,4.51203 0.08245,5.12123 0.760513,5.65809 0.487131,0.38567 1.247518,0.32171 1.923646,-0.16184 l 0.461612,-0.33013 -0.101007,-4.612 -0.10101,-4.61201 h 0.788714 c 0.43379,0 0.885802,-0.0374 1.004468,-0.0831 0.189097,-0.0728 0.207129,0.37037 0.145926,3.58688 -0.0384,2.01852 -0.01274,4.7461 0.05703,6.06129 0.06977,1.3152 0.11562,2.40959 0.101888,2.43198 -0.01373,0.0224 -0.364789,0.0811 -0.78012,0.13056 -0.838418,0.0997 -1.009474,-0.0209 -1.013322,-0.71475 -0.0028,-0.50996 -0.158593,-0.50442 -0.54416,0.0194 -0.383808,0.52139 -1.410178,1.03239 -2.064845,1.02803 -0.272555,-0.002 -0.708649,-0.10879 -0.9691,-0.23772 z"
       id="path867"
       inkscape:connector-curvature="0" />
    <path
       style="opacity:1;fill:#d400aa;fill-opacity:0.78391957;fill-rule:nonzero;stroke:none;stroke-width:0.26453292;stroke-miterlimit:4;stroke-dasharray:none;stroke-opacity:0"
       d="m 45.841481,295.69921 c -0.35713,-0.0831 -0.700431,-0.19989 -0.762887,-0.25955 -0.06246,-0.0597 -0.06961,-0.63782 -0.01588,-1.28476 l 0.09767,-1.17625 0.442253,0.22969 c 0.243241,0.12633 0.838929,0.26168 1.323754,0.30077 1.105615,0.0891 1.73218,-0.18921 1.87273,-0.83192 0.158044,-0.72271 -0.297998,-1.41997 -1.537724,-2.35109 -0.607892,-0.45657 -1.242354,-1.0235 -1.409916,-1.25985 -1.286106,-1.81404 -0.800804,-5.00489 0.899312,-5.91295 0.532604,-0.28446 2.365704,-0.3195 3.031502,-0.058 l 0.405573,0.15933 -0.09808,1.05095 c -0.05395,0.57802 -0.143789,1.10135 -0.199655,1.16296 -0.05587,0.0616 -0.338252,0.0127 -0.627521,-0.10869 -0.737295,-0.30941 -1.72326,-0.28467 -2.139272,0.0536 -0.252552,0.2054 -0.337372,0.42111 -0.337372,0.85797 0,0.70826 0.21951,0.97433 1.588512,1.92547 1.608513,1.11754 2.085072,1.9885 2.083654,3.8081 -0.0013,1.77222 -0.466763,2.79442 -1.54421,3.39185 -0.70223,0.38938 -2.104811,0.52735 -3.072432,0.30225 z"
       id="path869"
       inkscape:connector-curvature="0" />
    <path
       style="opacity:1;fill:#d400aa;fill-opacity:0.78391957;fill-rule:nonzero;stroke:none;stroke-width:0.26453292;stroke-miterlimit:4;stroke-dasharray:none;stroke-opacity:0"
       d="m 63.221898,295.6632 c -0.577769,-0.25728 -1.171465,-0.97982 -1.357303,-1.65187 -0.218762,-0.79113 -0.183096,-2.33309 0.07408,-3.20288 0.448254,-1.51603 2.010982,-2.62583 3.697432,-2.62583 h 0.550989 v -0.87675 c 0,-1.01791 -0.286072,-1.68301 -0.809928,-1.88305 -0.529516,-0.20219 -2.058432,-0.15805 -2.719778,0.0785 -0.314411,0.11247 -0.589755,0.18632 -0.611877,0.1641 -0.02212,-0.0222 0.0078,-0.5247 0.06663,-1.11663 l 0.10684,-1.07625 0.721475,-0.25396 c 1.09279,-0.38467 3.153717,-0.29906 3.791016,0.15748 1.065442,0.76324 1.413752,2.36091 1.284848,5.89347 -0.04653,1.27533 -0.02749,3.16606 0.04233,4.2016 0.06982,1.03555 0.09927,1.91061 0.06544,1.94457 -0.03382,0.034 -0.409944,0.0908 -0.835835,0.12626 l -0.774342,0.0644 -0.101286,-0.54226 -0.101289,-0.54226 -0.458932,0.43605 c -0.252413,0.23983 -0.5888,0.50153 -0.747526,0.58154 -0.533369,0.26888 -1.425325,0.32747 -1.882988,0.12366 z m 2.335132,-2.20973 c 0.272664,-0.12995 0.545655,-0.34191 0.606642,-0.47101 0.06099,-0.1291 0.08488,-0.91118 0.05308,-1.73797 l -0.0578,-1.50323 -0.63774,0.0878 c -1.497332,0.20612 -2.121207,0.93864 -2.039413,2.39457 0.04236,0.75408 0.113471,0.97516 0.384556,1.19563 0.409747,0.33324 1.036635,0.34592 1.690674,0.0343 z"
       id="path871"
       inkscape:connector-curvature="0" />
    <path
       style="opacity:1;fill:#d400aa;fill-opacity:0.78391957;fill-rule:nonzero;stroke:none;stroke-width:0.26453292;stroke-miterlimit:4;stroke-dasharray:none;stroke-opacity:0"
       d="m 69.86663,290.75502 c 0,-2.5706 -0.05309,-5.27091 -0.11799,-6.00069 l -0.117989,-1.32689 0.40658,-0.0812 c 0.223619,-0.0447 0.650076,-0.12328 0.947686,-0.17472 l 0.541107,-0.0935 v 0.66829 c 0,0.36756 0.0651,0.66828 0.14467,0.66828 0.07957,0 0.372467,-0.25324 0.650886,-0.56276 0.656056,-0.72934 1.185046,-0.9411 2.124479,-0.85043 0.676337,0.0653 0.81531,0.14253 1.376843,0.76547 l 0.624578,0.69287 0.605545,-0.58535 c 0.774435,-0.7486 1.097784,-0.90904 1.832052,-0.90904 0.937379,0 1.703584,0.51936 2.138013,1.44924 0.203083,0.4347 0.243734,1.25861 0.284222,5.76075 l 0.04725,5.25352 h -0.927159 -0.927161 l 0.01709,-4.23904 c 0.01821,-4.51729 -0.05345,-5.10539 -0.675395,-5.54292 -0.446788,-0.31431 -1.138684,-0.26801 -1.703129,0.11395 l -0.490297,0.3318 -0.03807,4.66811 -0.03807,4.6681 h -0.944175 -0.944168 l 0.09545,-3.73181 c 0.110375,-4.31561 2.65e-4,-5.42761 -0.587863,-5.9419 -0.526736,-0.46054 -1.354879,-0.4395 -1.933035,0.0491 l -0.443956,0.3752 v 4.6247 4.6247 H 70.840631 69.86664 Z"
       id="path873"
       inkscape:connector-curvature="0" />
    <path
       style="opacity:1;fill:#d400aa;fill-opacity:0.78391957;fill-rule:nonzero;stroke:none;stroke-width:0.26453292;stroke-miterlimit:4;stroke-dasharray:none;stroke-opacity:0"
       d="m 84.729034,295.7618 c -0.548312,-0.1462 -1.058655,-0.62732 -1.391925,-1.31221 -0.266221,-0.5471 -0.333797,-0.924 -0.331128,-1.84678 0.0076,-2.66242 1.20328,-4.1287 3.585016,-4.3967 l 0.879645,-0.099 -0.01341,-0.89498 c -0.01504,-1.003 -0.289591,-1.56821 -0.869294,-1.78957 -0.527206,-0.20132 -1.782336,-0.16954 -2.557439,0.0648 l -0.672262,0.20321 v -0.69233 c 0,-1.37602 0.09891,-1.57333 0.90995,-1.81524 0.910306,-0.27151 2.697039,-0.28224 3.322056,-0.02 0.259085,0.10873 0.644996,0.40529 0.85758,0.65903 0.722712,0.86264 0.825806,1.57965 0.833926,5.79989 0.004,2.11773 0.05594,4.28861 0.115248,4.82416 l 0.107836,0.97373 -0.603337,0.0908 c -0.927523,0.1397 -1.135807,0.0553 -1.187471,-0.48159 -0.04744,-0.4929 -0.265203,-0.62523 -0.409104,-0.24859 -0.207231,0.54239 -1.860218,1.17209 -2.575878,0.98126 z m 2.368376,-2.47525 c 0.357923,-0.26803 0.374914,-0.34659 0.414223,-1.91541 l 0.04099,-1.6359 -0.736344,0.0876 c -1.449929,0.17247 -2.094467,0.91671 -2.079249,2.4009 0.0069,0.67466 0.06418,0.82884 0.422881,1.13873 0.339479,0.29329 0.519325,0.34436 0.989572,0.281 0.316082,-0.0425 0.742646,-0.20319 0.947923,-0.35691 z"
       id="path875"
       inkscape:connector-curvature="0" />
    <path
       style="opacity:1;fill:#2ca089;fill-opacity:0.78391957;fill-rule:nonzero;stroke:none;stroke-width:0.26453292;stroke-miterlimit:4;stroke-dasharray:none;stroke-opacity:0"
       d="m 92.356448,292.9476 c -0.97347,-2.94369 -2.34157,-6.33392 -3.028835,-7.50541 -0.228913,-0.39024 -0.225409,-0.39622 0.491745,-0.83565 0.39726,-0.24342 0.7694,-0.45983 0.82696,-0.48089 0.0575,-0.0211 0.2459,0.22231 0.41854,0.54089 0.35744,0.65956 0.47751,0.67315 0.67247,0.0762 0.27643,-0.84654 0.86632,-1.48799 1.62326,-1.76516 0.88339,-0.32346 1.6315,-0.16523 2.41358,0.51051 l 0.55941,0.48335 1.83321,4.92049 1.83321,4.9205 -0.87842,0.32166 -0.87844,0.32164 -1.22159,-3.60189 c -1.35139,-3.98456 -1.81263,-4.93165 -2.5754,-5.28841 -0.63651,-0.29767 -1.37666,0.0124 -1.90551,0.79849 l -0.41403,0.61533 1.55655,4.28813 1.55656,4.28812 -0.90135,0.33004 -0.90134,0.33003 z"
       id="path877"
       inkscape:connector-curvature="0" />
  </g>
</svg>
