<?xml version="1.0" encoding="UTF-8" standalone="no"?>
<!-- Created with Inkscape (http://www.inkscape.org/) -->

<svg
   xmlns:dc="http://purl.org/dc/elements/1.1/"
   xmlns:cc="http://creativecommons.org/ns#"
   xmlns:rdf="http://www.w3.org/1999/02/22-rdf-syntax-ns#"
   xmlns:svg="http://www.w3.org/2000/svg"
   xmlns="http://www.w3.org/2000/svg"
   xmlns:sodipodi="http://sodipodi.sourceforge.net/DTD/sodipodi-0.dtd"
   xmlns:inkscape="http://www.inkscape.org/namespaces/inkscape"
   width="90mm"
   height="19mm"
   viewBox="0 0 90 19"
   version="1.1"
   id="svg837"
   sodipodi:docname="logoSpan.svg"
   inkscape:version="0.92.1 r15371">
  <defs
     id="defs831" />
  <sodipodi:namedview
     id="base"
     pagecolor="#ffffff"
     bordercolor="#666666"
     borderopacity="1.0"
     inkscape:pageopacity="0.0"
     inkscape:pageshadow="2"
     inkscape:zoom="2.3786042"
     inkscape:cx="188.97637"
     inkscape:cy="37.795296"
     inkscape:document-units="mm"
     inkscape:current-layer="layer1"
     showgrid="false"
     showborder="true"
     inkscape:window-width="1024"
     inkscape:window-height="715"
     inkscape:window-x="-8"
     inkscape:window-y="-8"
     inkscape:window-maximized="1" />
  <metadata
     id="metadata834">
    <rdf:RDF>
      <cc:Work
         rdf:about="">
        <dc:format>image/svg+xml</dc:format>
        <dc:type
           rdf:resource="http://purl.org/dc/dcmitype/StillImage" />
        <dc:title></dc:title>
      </cc:Work>
    </rdf:RDF>
  </metadata>
  <g
     inkscape:label="Layer 1"
     inkscape:groupmode="layer"
     id="layer1"
     transform="translate(0,-278)">
    <text
       xml:space="preserve"
       style="font-style:normal;font-variant:normal;font-weight:normal;font-stretch:normal;font-size:6.07795286px;line-height:1.25;font-family:'8514oem';-inkscape-font-specification:'8514oem, Normal';font-variant-ligatures:normal;font-variant-caps:normal;font-variant-numeric:normal;font-feature-settings:normal;text-align:center;letter-spacing:0px;word-spacing:0px;writing-mode:lr-tb;text-anchor:middle;fill:#4d4d4d;fill-opacity:1;stroke:none;stroke-width:0.32560459"
       x="27.375935"
       y="273.76404"
       id="text849"
       transform="scale(0.96857901,1.0324403)"><tspan
         sodipodi:role="line"
         id="tspan847"
         x="27.375935"
         y="273.76404"
         style="font-style:normal;font-variant:normal;font-weight:normal;font-stretch:normal;font-size:6.07795286px;font-family:'8514oem';-inkscape-font-specification:'8514oem, Normal';font-variant-ligatures:normal;font-variant-caps:normal;font-variant-numeric:normal;font-feature-settings:normal;text-align:center;writing-mode:lr-tb;text-anchor:middle;fill:#4d4d4d;stroke-width:0.32560459">Creative</tspan></text>
    <text
       xml:space="preserve"
       style="font-style:normal;font-variant:normal;font-weight:normal;font-stretch:normal;font-size:5.92651463px;line-height:1.25;font-family:sans-serif;-inkscape-font-specification:'sans-serif, Normal';font-variant-ligatures:normal;font-variant-caps:normal;font-variant-numeric:normal;font-feature-settings:normal;text-align:center;letter-spacing:0px;word-spacing:0px;writing-mode:lr-tb;text-anchor:middle;fill:#4d4d4d;fill-opacity:1;stroke:none;stroke-width:0.3174918"
       x="62.06958"
       y="299.75623"
       id="text853"
       transform="scale(1.0618104,0.94178773)"><tspan
         sodipodi:role="line"
         id="tspan851"
         x="62.06958"
         y="299.75623"
         style="font-style:normal;font-variant:normal;font-weight:normal;font-stretch:normal;font-size:5.92651463px;font-family:sans-serif;-inkscape-font-specification:'sans-serif, Normal';font-variant-ligatures:normal;font-variant-caps:normal;font-variant-numeric:normal;font-feature-settings:normal;text-align:center;writing-mode:lr-tb;text-anchor:middle;fill:#4d4d4d;stroke-width:0.3174918">Designer</tspan></text>
    <path
       style="opacity:1;fill:#ff0066;fill-opacity:0.78391957;fill-rule:nonzero;stroke:none;stroke-width:0.26226953;stroke-miterlimit:4;stroke-dasharray:none;stroke-opacity:0"
       d="m 45.484225,296.53263 c -0.317382,-0.095 -2.354364,0.37273 -0.403458,-0.88959 -1.710959,-0.54428 -0.0079,-0.97985 0.03733,-1.22127 0.08211,-0.43858 -1.045598,-1.12285 0.91238,-0.37895 0.738604,0.0533 0.880841,0.0174 1.289146,-0.32578 0.903158,-0.75918 0.962133,-1.25055 0.959166,-7.99161 l -0.0026,-5.98272 h 0.993747 0.993748 l -0.100315,5.88973 c -0.06678,3.92107 -0.166202,6.26677 -0.297435,7.01772 -0.200496,1.14729 -0.754523,2.5574 -1.196705,3.04588 -0.612641,0.67678 -2.266835,1.11128 -3.184973,0.83659 z"
       id="path857"
       inkscape:connector-curvature="0"
       sodipodi:nodetypes="cccccccccccccc" />
    <path
       style="opacity:1;fill:#d400aa;fill-opacity:0.78391957;fill-rule:nonzero;stroke:none;stroke-width:0.26226953;stroke-miterlimit:4;stroke-dasharray:none;stroke-opacity:0"
       d="m 1.0407976,295.62742 c -0.74155774,-0.68131 -1.14576164,-2.05572 -1.01716294,-3.45863 0.117049,-1.27691 0.8308829,-3.19706 1.68977994,-4.54535 1.755272,-2.75542 3.870056,-3.94348 5.717975,-3.21229 0.665145,0.26322 0.848854,0.4045 1.192505,0.91534 1.274554,1.89603 0.544893,5.56566 -1.685901,8.47875 -1.850734,2.41678 -4.394511,3.20278 -5.897196,1.82218 z m 2.542853,-1.40031 c 0.991731,-0.16156 2.589944,-2.23688 3.232228,-4.19709 0.72085,-2.2 0.422009,-3.70055 -0.7502,-3.76696 -1.082863,-0.0613 -2.23981,1.17214 -3.231053,3.44479 -1.055046,2.41892 -1.06063,3.87938 -0.01675,4.38227 0.223328,0.10759 0.567928,0.16923 0.765779,0.13699 z"
       id="path859"
       inkscape:connector-curvature="0" />
    <path
       style="opacity:1;fill:#d400aa;fill-opacity:0.78391957;fill-rule:nonzero;stroke:none;stroke-width:0.26226953;stroke-miterlimit:4;stroke-dasharray:none;stroke-opacity:0"
       d="m 10.027867,287.37336 c -0.02649,-4.86678 -0.03526,-8.87194 -0.01949,-8.90037 0.01577,-0.0284 0.451848,-0.0856 0.969086,-0.12709 l 0.940433,-0.0754 v 5.26195 c 0,4.14524 0.03805,5.24955 0.179306,5.20348 0.218883,-0.0714 0.995263,-1.46697 1.754485,-3.15379 l 0.564354,-1.25387 h 1.046061 c 0.575336,0 1.045156,0.0483 1.044045,0.10748 -0.0057,0.30355 -1.580465,2.93008 -2.637685,4.39938 -0.08628,0.1199 0.04618,0.46401 0.397443,1.03251 0.589454,0.954 1.867881,3.74567 2.436687,5.32091 l 0.37319,1.03351 h -1.132957 -1.132954 l -0.248522,-0.75233 c -0.290664,-0.87988 -1.612295,-3.87339 -2.011791,-4.55672 -0.576891,-0.98677 -0.631662,-0.78218 -0.631662,2.35949 v 2.94956 H 10.99696 10.076028 Z"
       id="path861"
       inkscape:connector-curvature="0" />
    <path
       style="opacity:1;fill:#d400aa;fill-opacity:0.78391957;fill-rule:nonzero;stroke:none;stroke-width:0.26226956;stroke-miterlimit:4;stroke-dasharray:none;stroke-opacity:0"
       d="m 20.145216,286.71816 c 5.3e-4,-0.70933 0.02506,-0.98144 0.0547,-0.60469 0.02966,0.37674 0.02929,0.9571 -7.94e-4,1.28968 -0.03009,0.33259 -0.05434,0.0243 -0.05391,-0.68499 z"
       id="path863"
       inkscape:connector-curvature="0" />
    <path
       style="opacity:1;fill:#2ca089;fill-opacity:0.78391957;fill-rule:nonzero;stroke:none;stroke-width:0.26226953;stroke-miterlimit:4;stroke-dasharray:none;stroke-opacity:0"
       d="m 18.912175,292.57184 c -0.804451,-2.41139 -1.699563,-4.92779 -1.989148,-5.59199 l -0.526516,-1.20765 0.358036,-0.20385 c 0.196925,-0.1121 0.574525,-0.31976 0.839105,-0.46145 l 0.481052,-0.25766 0.209136,0.62689 c 0.115027,0.3448 0.27224,0.60588 0.349379,0.58021 0.07712,-0.0257 0.253302,-0.31468 0.391482,-0.64223 0.323005,-0.76565 0.876391,-1.29034 1.623101,-1.53894 0.909914,-0.30292 1.601232,-0.11532 2.382959,0.64669 l 0.672194,0.65523 1.646689,4.78728 1.646688,4.78727 -0.978021,0.3256 c -0.960407,0.31974 -0.978464,0.31944 -1.004502,-0.0228 -0.04797,-0.63107 -2.378209,-7.50917 -2.692275,-7.9467 -0.804765,-1.12114 -2.002641,-0.97287 -2.737734,0.33889 -0.212479,0.37915 -0.208098,0.39599 1.207454,4.63919 l 1.420708,4.25866 -0.918586,0.30585 -0.918581,0.30584 z"
       id="path865"
       inkscape:connector-curvature="0" />
    <path
       style="opacity:1;fill:#d400aa;fill-opacity:0.78391957;fill-rule:nonzero;stroke:none;stroke-width:0.26226953;stroke-miterlimit:4;stroke-dasharray:none;stroke-opacity:0"
       d="m 28.445461,296.41362 c -0.25892,-0.12748 -0.596571,-0.40828 -0.750332,-0.624 -0.604559,-0.84815 -0.719557,-1.82429 -0.795975,-6.75638 l -0.07253,-4.68108 0.973075,-0.0478 0.973077,-0.0478 5.28e-4,4.08401 c 5.29e-4,4.4614 0.08196,5.06377 0.756037,5.5946 0.484264,0.38135 1.240176,0.3181 1.912324,-0.16002 l 0.458896,-0.32643 -0.100413,-4.56025 -0.100415,-4.56027 h 0.784071 c 0.431237,0 0.880589,-0.037 0.998556,-0.0822 0.187985,-0.072 0.20591,0.36621 0.145068,3.54663 -0.03817,1.99588 -0.01266,4.69285 0.05669,5.99329 0.06936,1.30044 0.114939,2.38255 0.101288,2.40469 -0.01365,0.0222 -0.362642,0.0802 -0.775528,0.1291 -0.833484,0.0986 -1.003533,-0.0207 -1.007358,-0.70673 -0.0028,-0.50424 -0.15766,-0.49876 -0.540957,0.0192 -0.381549,0.51554 -1.401879,1.02081 -2.052692,1.01649 -0.270951,-0.002 -0.704479,-0.10756 -0.963397,-0.23505 z"
       id="path867"
       inkscape:connector-curvature="0" />
    <path
       style="opacity:1;fill:#d400aa;fill-opacity:0.78391957;fill-rule:nonzero;stroke:none;stroke-width:0.26226953;stroke-miterlimit:4;stroke-dasharray:none;stroke-opacity:0"
       d="m 36.160242,296.48938 c -0.355028,-0.0822 -0.696308,-0.19764 -0.758397,-0.25663 -0.06209,-0.059 -0.0692,-0.63067 -0.01579,-1.27035 l 0.09709,-1.16305 0.43965,0.22711 c 0.241809,0.12491 0.833991,0.25874 1.315963,0.2974 1.099107,0.0881 1.721985,-0.18709 1.861707,-0.82259 0.157114,-0.7146 -0.296244,-1.40404 -1.528673,-2.32471 -0.604314,-0.45145 -1.235042,-1.01202 -1.401618,-1.24572 -1.278536,-1.79369 -0.796091,-4.94874 0.894019,-5.84661 0.529469,-0.28127 2.35178,-0.31591 3.01366,-0.0573 l 0.403186,0.15755 -0.0975,1.03915 c -0.05363,0.57154 -0.142943,1.089 -0.19848,1.14992 -0.05554,0.0609 -0.336261,0.0126 -0.623828,-0.10747 -0.732955,-0.30594 -1.713117,-0.28148 -2.126681,0.053 -0.251065,0.2031 -0.335386,0.41639 -0.335386,0.84835 0,0.70031 0.218218,0.9634 1.579163,1.90387 1.599046,1.105 2.0728,1.96619 2.07139,3.76537 -0.0013,1.75234 -0.464016,2.76307 -1.535121,3.3538 -0.698097,0.38501 -2.092423,0.52143 -3.054349,0.29885 z"
       id="path869"
       inkscape:connector-curvature="0" />
    <path
       style="opacity:1;fill:#d400aa;fill-opacity:0.78391957;fill-rule:nonzero;stroke:none;stroke-width:0.26226953;stroke-miterlimit:4;stroke-dasharray:none;stroke-opacity:0"
       d="m 53.438364,296.45378 c -0.574369,-0.2544 -1.16457,-0.96883 -1.349315,-1.63334 -0.217474,-0.78225 -0.182018,-2.30691 0.07364,-3.16694 0.445616,-1.49903 1.999146,-2.59637 3.675671,-2.59637 h 0.547746 v -0.86692 c 0,-1.00649 -0.284389,-1.66413 -0.805161,-1.86192 -0.5264,-0.19992 -2.046317,-0.15628 -2.703771,0.0776 -0.31256,0.11121 -0.586284,0.18423 -0.608275,0.16226 -0.02199,-0.022 0.0078,-0.51882 0.06624,-1.1041 l 0.106212,-1.06418 0.717228,-0.25111 c 1.086359,-0.38035 3.135156,-0.29571 3.768704,0.15571 1.059171,0.75468 1.405431,2.33442 1.277285,5.82735 -0.04626,1.26102 -0.02733,3.13054 0.04208,4.15446 0.06941,1.02393 0.09869,1.88918 0.06506,1.92275 -0.03362,0.0336 -0.407531,0.0898 -0.830915,0.12485 l -0.769785,0.0637 -0.10069,-0.53618 -0.100693,-0.53618 -0.45623,0.43116 c -0.250928,0.23714 -0.585335,0.4959 -0.743127,0.57502 -0.53023,0.26586 -1.416936,0.32379 -1.871905,0.12227 z m 2.321388,-2.18494 c 0.271059,-0.12849 0.542443,-0.33807 0.603072,-0.46573 0.06063,-0.12765 0.08438,-0.90095 0.05277,-1.71847 l -0.05746,-1.48636 -0.633986,0.0868 c -1.488519,0.20381 -2.108722,0.92811 -2.02741,2.36771 0.04211,0.74562 0.112803,0.96422 0.382293,1.18221 0.407335,0.3295 1.030533,0.34204 1.680723,0.0339 z"
       id="path871"
       inkscape:connector-curvature="0" />
    <path
       style="opacity:1;fill:#d400aa;fill-opacity:0.78391957;fill-rule:nonzero;stroke:none;stroke-width:0.26226953;stroke-miterlimit:4;stroke-dasharray:none;stroke-opacity:0"
       d="m 60.043987,291.60066 c 0,-2.54175 -0.05278,-5.21177 -0.117295,-5.93336 l -0.117295,-1.312 0.404187,-0.0803 c 0.222303,-0.0442 0.64625,-0.1219 0.942108,-0.17276 l 0.537923,-0.0925 v 0.66079 c 0,0.36343 0.06472,0.66078 0.143818,0.66078 0.0791,0 0.370275,-0.2504 0.647055,-0.55645 0.652195,-0.72115 1.178071,-0.93054 2.111975,-0.84088 0.672357,0.0646 0.810512,0.14093 1.36874,0.75688 l 0.620902,0.68509 0.601981,-0.57878 c 0.769876,-0.7402 1.091322,-0.89884 1.821269,-0.89884 0.931862,0 1.693557,0.51353 2.125429,1.43298 0.201888,0.42982 0.2423,1.24449 0.282549,5.69612 l 0.04697,5.19458 h -0.921702 -0.921704 l 0.01699,-4.19148 c 0.0181,-4.46661 -0.05313,-5.04811 -0.671419,-5.48073 -0.444159,-0.31079 -1.131983,-0.26501 -1.693105,0.11267 l -0.487412,0.32807 -0.03785,4.61574 -0.03785,4.61573 h -0.938617 -0.938611 l 0.09489,-3.68994 c 0.109725,-4.2672 2.63e-4,-5.36672 -0.584403,-5.87524 -0.523636,-0.45537 -1.346905,-0.43457 -1.921658,0.0486 l -0.441343,0.37099 v 4.57281 4.57282 h -0.96826 -0.968259 z"
       id="path873"
       inkscape:connector-curvature="0" />
    <path
       style="opacity:1;fill:#d400aa;fill-opacity:0.78391957;fill-rule:nonzero;stroke:none;stroke-width:0.26226953;stroke-miterlimit:4;stroke-dasharray:none;stroke-opacity:0"
       d="m 74.818916,296.55127 c -0.545085,-0.14456 -1.052424,-0.62028 -1.383732,-1.29749 -0.264655,-0.54096 -0.331833,-0.91363 -0.32918,-1.82606 0.0076,-2.63255 1.196198,-4.08237 3.563916,-4.34737 l 0.874468,-0.0979 -0.01333,-0.88494 c -0.01495,-0.99174 -0.287887,-1.55061 -0.864178,-1.76949 -0.524103,-0.19906 -1.771846,-0.16764 -2.542387,0.0641 l -0.668305,0.20093 v -0.68457 c 0,-1.36058 0.09833,-1.55568 0.904595,-1.79487 0.904948,-0.26846 2.681165,-0.27907 3.302503,-0.0198 0.25756,0.10751 0.6412,0.40075 0.852533,0.65164 0.718458,0.85296 0.820945,1.56193 0.829017,5.73482 0.004,2.09397 0.05561,4.24049 0.11457,4.77003 l 0.107201,0.96281 -0.599786,0.0898 c -0.922063,0.13813 -1.129122,0.0547 -1.180482,-0.47619 -0.04716,-0.48737 -0.263642,-0.61821 -0.406696,-0.2458 -0.206011,0.53631 -1.849269,1.15894 -2.560717,0.97025 z m 2.354437,-2.44748 c 0.355816,-0.26502 0.372707,-0.3427 0.411785,-1.89392 l 0.04075,-1.61754 -0.73201,0.0866 c -1.441395,0.17054 -2.082139,0.90643 -2.067011,2.37397 0.0069,0.66709 0.0638,0.81954 0.420392,1.12595 0.337481,0.29 0.516269,0.3405 0.983748,0.27785 0.314222,-0.042 0.738275,-0.20091 0.942344,-0.35291 z"
       id="path875"
       inkscape:connector-curvature="0" />
    <path
       style="opacity:1;fill:#2ca089;fill-opacity:0.78391957;fill-rule:nonzero;stroke:none;stroke-width:0.26226953;stroke-miterlimit:4;stroke-dasharray:none;stroke-opacity:0"
       d="m 82.401438,293.76864 c -0.967741,-2.91066 -2.327789,-6.26285 -3.011009,-7.4212 -0.227565,-0.38586 -0.224082,-0.39177 0.488851,-0.82627 0.394922,-0.24069 0.764872,-0.45467 0.822093,-0.4755 0.05716,-0.0209 0.244453,0.21982 0.416077,0.53482 0.355336,0.65216 0.474699,0.6656 0.668512,0.0754 0.274803,-0.83704 0.861221,-1.4713 1.613706,-1.74536 0.87819,-0.31983 1.621897,-0.16337 2.399374,0.50479 l 0.556118,0.47792 1.82242,4.86529 1.82242,4.86529 -0.873249,0.31805 -0.87327,0.31803 -1.2144,-3.56147 c -1.343437,-3.93986 -1.801962,-4.87632 -2.560242,-5.22908 -0.632764,-0.29433 -1.368558,0.0123 -1.894295,0.78953 l -0.411593,0.60843 1.547388,4.24002 1.547399,4.24001 -0.896045,0.32633 L 83.475658,297 Z"
       id="path877"
       inkscape:connector-curvature="0" />
  </g>
</svg>
